<svg xmlns="http://www.w3.org/2000/svg" xmlns:xlink="http://www.w3.org/1999/xlink" viewBox="0,0,256,256" width="128px" height="128px"><g fill="none" fill-rule="nonzero" stroke="none" stroke-width="1" stroke-linecap="butt" stroke-linejoin="miter" stroke-miterlimit="10" stroke-dasharray="" stroke-dashoffset="0" font-family="none" font-weight="none" font-size="none" text-anchor="none" style="mix-blend-mode: normal"><g transform="scale(2,2)"><path d="M112,34l-48,-17l-48,17v60l48,17l48,-17z" fill="#fffefc"></path><path d="M112,34l-48,-17l-48,17v60l48,17l48,-17zM112,34l-48,-17" fill="#fffefc"></path><path d="M64,114c-0.3,0 -0.7,-0.1 -1,-0.2l-48,-17c-1.2,-0.4 -2,-1.6 -2,-2.8v-60c0,-1.3 0.8,-2.4 2,-2.8l48,-17c1.6,-0.6 3.3,0.3 3.8,1.8c0.6,1.6 -0.3,3.3 -1.8,3.8l-46,16.3v55.8l46,16.3c1.6,0.6 2.4,2.3 1.8,3.8c-0.4,1.2 -1.6,2 -2.8,2z" fill="#f97316"></path><path d="M112,34l-48,-17M112,34l-48,-17" fill="#fffefc"></path><path d="M115,33.9c0,-0.1 0,-0.3 0,-0.4v-0.1c-0.2,-1 -0.9,-1.9 -1.9,-2.2l-24,-8.5h-0.1c-0.6,-0.2 -1.4,-0.3 -2.1,0l-46.9,16.5c-1.2,0.4 -2,1.6 -2,2.8v11c0,1.7 1.3,3 3,3c1.7,0 3,-1.3 3,-3v-8.9l43.8,-15.5l15.2,5.4l-40,14.2c-1.2,0.4 -2,1.5 -2,2.8c0,0 0,0 0,0.1v55.8l-42,-15v-55.8l46,-16.3c1.6,-0.6 2.4,-2.3 1.8,-3.8c-0.6,-1.6 -2.3,-2.4 -3.8,-1.8l-48,17c-1.2,0.4 -2,1.6 -2,2.8v60c0,1.3 0.8,2.4 2,2.8l48,17v0c0.3,0.1 0.7,0.2 1,0.2c0.3,0 0.7,-0.1 1,-0.2l48,-17c1.2,-0.4 2,-1.6 2,-2.8v-60.1c0,0.1 0,0 0,0zM109,91.9l-42,14.9v-53.7l42,-14.9z" fill="#f97316"></path></g></g></svg>