<svg xmlns="http://www.w3.org/2000/svg" xmlns:xlink="http://www.w3.org/1999/xlink" viewBox="0,0,256,256" width="100px" height="100px"><g fill="#6b7280" fill-rule="nonzero" stroke="none" stroke-width="1" stroke-linecap="butt" stroke-linejoin="miter" stroke-miterlimit="10" stroke-dasharray="" stroke-dashoffset="0" font-family="none" font-weight="none" font-size="none" text-anchor="none" style="mix-blend-mode: normal"><g transform="scale(5.12,5.12)"><path d="M25,0.04688c-2.07504,0 -4.14903,0.7877 -5.72656,2.36523l-16.86133,16.85937c-3.15507,3.15507 -3.15507,8.30001 0,11.45508l16.86133,16.86133c3.15429,3.15429 8.29883,3.15429 11.45312,0l16.86133,-16.85937c3.15507,-3.15507 3.15507,-8.30001 0,-11.45508l-16.85937,-16.86133c-1.57754,-1.57754 -3.65348,-2.36523 -5.72852,-2.36523zM25,2.0332c1.55896,0 3.11899,0.5975 4.31445,1.79297l9.17188,9.17383h-1.41602c-1.59096,0 -3.11702,0.6319 -4.24219,1.75586c0,0.00065 0,0.0013 0,0.00195l-6.76758,6.76758c-0.59371,0.59371 -1.52814,0.5943 -2.12305,0l-6.76758,-6.76758c-1.12365,-1.12484 -2.64928,-1.75781 -4.24023,-1.75781h-1.41797l9.17578,-9.17383c1.19546,-1.19546 2.75354,-1.79297 4.3125,-1.79297zM9.51172,15h3.41797c1.06104,0 2.07782,0.42077 2.82617,1.16992c0,0.00065 0,0.0013 0,0.00195l6.76758,6.76758c1.35909,1.3577 3.59288,1.35829 4.95117,0l6.76758,-6.76758c0.75084,-0.75008 1.76708,-1.17187 2.82812,-1.17187h3.41602l5.6875,5.6875c2.39093,2.39093 2.39093,6.23602 0,8.62695l-5.68555,5.68555h-3.41797c-1.06104,0 -2.07729,-0.42184 -2.82812,-1.17187l-6.76758,-6.76758c-0.67915,-0.67915 -1.57682,-1.01756 -2.47461,-1.01758c-0.89779,-0.00002 -1.79702,0.33873 -2.47656,1.01758l-6.76758,6.76758c0,0.00065 0,0.0013 0,0.00195c-0.74835,0.74911 -1.76513,1.16992 -2.82617,1.16992h-3.41602l-5.6875,-5.6875c-2.39093,-2.39093 -2.39093,-6.23602 0,-8.62695zM25,28.0293c0.38218,0.00007 0.76369,0.14846 1.06055,0.44531l6.76758,6.76758c0,0.00065 0,0.0013 0,0.00195c1.12516,1.12392 2.65123,1.75586 4.24219,1.75586h1.41797l-9.17578,9.17383c-2.38971,2.38971 -6.23529,2.38971 -8.625,0l-9.17383,-9.17383h1.41602c1.59096,0 3.11659,-0.63297 4.24023,-1.75781l6.76758,-6.76758c0.29745,-0.29715 0.68032,-0.44539 1.0625,-0.44531z"></path></g></g></svg>