<svg xmlns="http://www.w3.org/2000/svg" viewBox="0 0 62 53" id="Pizza"><path fill="#386bed" fill-rule="nonzero" d="M61.11 20.861a26.321 26.321 0 0 0-11.14-19.19l-.61.792-1.03 1.369-.61.789-13.26 17.512a.495.495 0 0 0 .4.799h.02l22.6-.92 1-.04 1.71-.07 1.01-.04c-.03-.34-.05-.67-.09-1zM35.9 21.893l12.64-16.68A22.638 22.638 0 0 1 57.4 21.02l-21.5.872zm22.51-.92a23.654 23.654 0 0 0-9.27-16.551l1.04-1.37a25.397 25.397 0 0 1 9.94 17.85l-1.71.07zM18.222 12.87a4.25 4.25 0 1 0 0 8.5 4.25 4.25 0 0 0 0-8.5zm0 7.5a3.25 3.25 0 1 1 0-6.5 3.25 3.25 0 0 1 0 6.5zm2.4 10.24a4.25 4.25 0 1 0 0 8.5 4.25 4.25 0 0 0 0-8.5zm0 7.5a3.25 3.25 0 1 1 0-6.5 3.25 3.25 0 0 1 0 6.5zm28.34-29.31a3.5 3.5 0 1 0 0 7 3.5 3.5 0 0 0 0-7zm0 6a2.5 2.5 0 1 1 0-5 2.5 2.5 0 0 1 0 5zm4.47 10.17l-.09-1-.99.039-1.71.07-1.01.041-21.5.87 12.64-16.67.6-.8 1.03-1.36.6-.8-.81-.58A26.088 26.088 0 0 0 27.092 0C12.526-.003.715 11.803.712 26.37.71 40.936 12.515 52.747 27.082 52.75c14.566.003 26.377-11.803 26.38-26.37 0-.47-.01-.939-.03-1.41zm-26.74.26a.506.506 0 0 0-.05.54c.092.162.264.261.45.26h.02l22.6-.91c.03.42.04.84.04 1.26a22.495 22.495 0 0 1-5 14.17 4.198 4.198 0 0 0-3.38-1.69 4.236 4.236 0 0 0-3.05 7.19 22.399 22.399 0 0 1-11.23 2.99 22.665 22.665 0 1 1 12.87-41.31l-13.27 17.5zm17.4 16.109a22.274 22.274 0 0 1-4.9 4.181 3.249 3.249 0 1 1 4.9-4.181zm1.48 2.4c-9.266 9.877-24.654 10.738-34.964 1.957-10.31-8.781-11.907-24.11-3.63-34.83C15.253.15 30.487-2.182 41.591 5.57l-1.03 1.371a23.442 23.442 0 0 0-13.47-4.23c-13.07 0-23.665 10.595-23.665 23.665 0 13.07 10.595 23.665 23.665 23.665a23.448 23.448 0 0 0 12.06-3.32c.33-.19.66-.391.98-.61a23.275 23.275 0 0 0 4.39-3.76c.27-.29.52-.58.77-.87a23.55 23.55 0 0 0 5.46-15.1c0-.44-.01-.871-.04-1.301l1.71-.07a25.265 25.265 0 0 1-6.85 18.73zm-29.68-17.459a4.242 4.242 0 0 0-7.29 2.969c0 .875.272 1.729.78 2.441l.67.739.78-.639 2.45-2.031 1.38-1.158 1.06-.881.78-.641a4.346 4.346 0 0 0-.61-.799zm-5.74 4.78a3.202 3.202 0 0 1-.55-1.811 3.253 3.253 0 0 1 3.25-3.26 3.208 3.208 0 0 1 2.27.93l-4.97 4.14zM31.11 13.584a4.243 4.243 0 0 0-6.152-4.912 4.194 4.194 0 0 0-1.749 1.873l-.317.945.94.367 2.967 1.147 1.686.639 1.286.496.94.367c.168-.29.302-.6.399-.922zm-6.975-2.676a3.207 3.207 0 0 1 1.312-1.363 3.252 3.252 0 0 1 4.431 1.244c.419.74.526 1.616.298 2.436l-6.04-2.317zm6.89 32.969a3.944 3.944 0 0 0-.44-7.305 3.896 3.896 0 0 0-2.381-.04l-.85.368.33.88 1.058 2.761.609 1.56.458 1.198.331.877c.306-.065.603-.165.886-.3zm-2.496-6.48a2.977 2.977 0 0 1 1.758.056 3.024 3.024 0 0 1 1.9 3.834 2.977 2.977 0 0 1-1.494 1.72l-2.164-5.61zm12.84-7.098a2.132 2.132 0 1 0 0 4.264 2.132 2.132 0 0 0 0-4.264zm0 3.762a1.63 1.63 0 1 1 0-3.26 1.63 1.63 0 0 1 0 3.26zM43.33 15.8a2.132 2.132 0 1 0 0 4.263 2.132 2.132 0 0 0 0-4.263zm0 3.762a1.63 1.63 0 1 1 0-3.26 1.63 1.63 0 0 1 0 3.26zM33.973 34.63a2.972 2.972 0 0 1-2.137-1.393 3.704 3.704 0 0 1-.691-1.662 1.392 1.392 0 0 1 .472-1.367c.702-.502 1.974.039 2.795 1.19.846 1.183.943 2.515.22 3.03a1.112 1.112 0 0 1-.659.202zm-1.696-3.922a.433.433 0 0 0-.254.07.757.757 0 0 0-.183.715c.078.485.273.944.567 1.338.684.959 1.506 1.246 1.819 1.027.339-.242.247-1.171-.384-2.054a2.312 2.312 0 0 0-1.565-1.096zm-7.952 15.059c-.106 0-.213-.004-.323-.014a3.694 3.694 0 0 1-1.72-.53 1.39 1.39 0 0 1-.75-1.236c.062-.877 1.234-1.511 2.7-1.39 1.45.105 2.537.88 2.472 1.765-.059.813-1.06 1.405-2.38 1.405zm-.415-2.483c-.973 0-1.655.39-1.681.754-.014.193.144.41.433.598.423.25.9.394 1.391.42 1.096.068 1.924-.346 1.954-.744.03-.415-.745-.938-1.826-1.018a4.249 4.249 0 0 0-.271-.01zm.438-17.736c-.663 0-1.292-.754-1.496-1.791a2.513 2.513 0 0 1 .241-1.83.984.984 0 0 1 .626-.442c.693-.13 1.444.645 1.666 1.772.227 1.154-.145 2.13-.867 2.273a.831.831 0 0 1-.17.018zm-.458-3.38a.31.31 0 0 0-.216.15c-.2.403-.248.866-.135 1.302.156.791.577 1.227.81 1.227l.034-.004c.236-.045.476-.635.315-1.451-.155-.788-.577-1.223-.808-1.223zM7.142 21.82a.35.35 0 0 1-.336-.447 23.173 23.173 0 0 1 6.945-10.326.35.35 0 0 1 .442.543c-.05.04-5.017 4.135-6.715 9.978a.347.347 0 0 1-.336.252z" class="color231300 svgShape"></path></svg>